<?xml version="1.0" standalone="no"?>
<!DOCTYPE svg PUBLIC "-//W3C//DTD SVG 20010904//EN"
 "http://www.w3.org/TR/2001/REC-SVG-20010904/DTD/svg10.dtd">
<svg version="1.0" xmlns="http://www.w3.org/2000/svg"
 width="200.000000pt" height="200.000000pt" viewBox="0 0 200.000000 200.000000"
 preserveAspectRatio="xMidYMid meet">
<metadata>
Created by potrace 1.14, written by Peter Selinger 2001-2017
</metadata>
<g transform="translate(0.000000,200.000000) scale(0.100000,-0.100000)"
fill="#000000" stroke="none">
<path d="M235 1340 c-4 -6 -10 -8 -15 -5 -10 6 -20 -39 -16 -73 3 -28 21 -42
55 -42 13 0 34 -11 47 -25 13 -14 32 -25 43 -25 11 0 23 -5 27 -12 5 -7 3 -8
-7 -3 -8 5 -7 0 4 -12 9 -11 17 -25 17 -31 0 -13 36 -26 49 -18 9 6 23 -23 20
-40 -3 -21 2 -26 15 -15 11 10 14 9 12 -2 -1 -8 -7 -21 -12 -28 -23 -29 -24
-38 -7 -56 10 -10 16 -17 14 -16 -2 1 -10 -5 -18 -13 -13 -13 -13 -17 7 -34
13 -11 17 -20 10 -20 -10 0 -9 -4 1 -17 13 -16 12 -17 -3 -5 -9 8 -35 12 -60
10 l-43 -3 1 -45 c2 -34 8 -49 28 -66 24 -21 33 -22 215 -21 186 2 190 2 215
26 54 50 13 122 -63 111 -21 -2 -6 140 17 158 10 8 16 26 15 52 -1 35 6 46 48
90 27 28 49 54 49 58 0 4 19 7 42 7 35 0 44 4 58 28 13 24 13 30 0 54 -20 36
-67 49 -125 36 -25 -6 -45 -6 -45 -2 0 5 -15 8 -32 8 -31 -2 -31 -2 -5 -6 29
-5 38 -33 10 -33 -16 0 -16 2 -3 11 12 9 11 10 -7 6 -13 -3 -26 -1 -29 4 -3 5
-10 6 -16 3 -7 -5 -4 -12 8 -22 18 -14 18 -14 -3 -9 -16 3 -23 1 -23 -10 0 -8
5 -11 12 -7 7 5 9 2 6 -8 -8 -18 28 -53 36 -35 3 7 5 6 5 -3 1 -9 -9 -24 -21
-34 -19 -17 -20 -20 -6 -25 13 -5 9 -11 -20 -30 l-37 -24 20 23 c11 13 15 20
8 16 -13 -7 -73 19 -85 38 -4 6 -1 21 7 33 48 72 -12 113 -166 112 -124 -1
-174 -8 -160 -22 12 -12 -3 -47 -20 -47 -6 0 -3 7 5 16 22 22 21 23 -21 19
-29 -3 -32 -3 -11 3 21 5 25 10 18 22 -6 10 -10 11 -10 3 0 -7 -12 -13 -26
-13 -14 0 -23 4 -19 10 3 6 4 10 1 10 -3 0 -8 -5 -11 -10z m360 -11 c11 -16 1
-19 -13 -3 -7 8 -8 14 -3 14 5 0 13 -5 16 -11z m-42 -26 c-7 -2 -19 -2 -25 0
-7 3 -2 5 12 5 14 0 19 -2 13 -5z m-295 -25 c-2 -6 -12 -12 -22 -14 -14 -2
-15 0 -5 12 14 17 32 19 27 2z m96 -4 c3 -8 2 -12 -4 -9 -6 3 -10 10 -10 16 0
14 7 11 14 -7z m436 10 c0 -8 -19 -13 -24 -6 -3 5 1 9 9 9 8 0 15 -2 15 -3z
m-441 -79 c0 6 10 11 21 12 17 2 18 -1 10 -18 -6 -10 -14 -19 -18 -19 -17 0
-32 25 -31 50 1 24 2 23 9 -5 4 -16 8 -25 9 -20z m31 41 c0 -11 -19 -15 -25
-6 -3 5 1 10 9 10 9 0 16 -2 16 -4z m-60 -51 c0 -5 -5 -3 -10 5 -5 8 -10 20
-10 25 0 6 5 3 10 -5 5 -8 10 -19 10 -25z m224 7 c3 -5 -1 -9 -9 -9 -8 0 -12
4 -9 9 3 4 7 8 9 8 2 0 6 -4 9 -8z m146 -99 c-11 -17 -11 -17 -6 0 3 10 6 24
7 30 0 9 2 9 5 0 3 -7 0 -20 -6 -30z m41 -33 c6 0 7 5 4 10 -3 6 -1 10 4 10
17 0 13 -18 -7 -29 -15 -8 -18 -5 -19 12 0 12 1 16 4 10 3 -7 9 -13 14 -13z
m-36 -30 c-3 -5 -25 -9 -48 -8 l-42 1 45 7 c25 4 46 8 48 8 2 1 0 -2 -3 -8z
m-181 -92 c-5 -9 -2 -8 9 1 10 8 20 11 23 8 10 -10 -6 -27 -27 -27 -19 0 -25
11 -12 23 11 11 15 8 7 -5z m160 0 c-3 -4 1 -8 8 -8 10 0 9 -3 -2 -10 -9 -5
-19 -5 -27 2 -18 15 -16 24 6 24 11 0 17 -4 15 -8z m-27 -134 c-3 -3 -12 -4
-19 -1 -8 3 -5 6 6 6 11 1 17 -2 13 -5z m-156 -27 c-10 -9 -11 -8 -5 6 3 10 9
15 12 12 3 -3 0 -11 -7 -18z m-66 -7 c-4 -6 -10 -8 -15 -5 -4 3 -10 0 -12 -7
-3 -8 -7 -6 -11 5 -5 13 -1 17 19 17 14 0 23 -4 19 -10z m130 -8 c-3 -3 -11 0
-18 7 -9 10 -8 11 6 5 10 -3 15 -9 12 -12z m110 9 c-17 -15 -55 -23 -55 -11 0
6 3 9 8 7 4 -3 16 -1 27 4 27 10 31 11 20 0z m78 -18 c-7 -2 -19 -2 -25 0 -7
3 -2 5 12 5 14 0 19 -2 13 -5z"/>
<path d="M1264 1339 c-3 -5 -17 -9 -32 -9 -34 0 -75 -27 -66 -43 4 -7 4 -9 -1
-5 -9 9 -56 -14 -74 -36 -10 -12 -10 -16 -2 -16 8 0 7 -6 -3 -16 -9 -8 -16
-24 -16 -35 0 -12 -7 -19 -20 -19 -11 0 -23 -7 -26 -15 -8 -21 11 -70 27 -69
9 1 14 -10 15 -28 1 -20 -2 -25 -7 -16 -5 7 -9 8 -9 3 0 -6 6 -17 12 -23 10
-10 8 -14 -10 -18 -24 -7 -24 -6 -28 -49 -3 -33 14 -75 29 -75 6 0 3 8 -6 18
-10 10 -17 23 -17 28 0 4 8 -3 17 -16 10 -14 18 -29 18 -35 0 -5 15 -11 33
-13 19 -2 32 -9 32 -17 0 -8 16 -30 36 -49 74 -71 266 -89 384 -34 30 14 67
29 83 32 23 5 34 24 25 40 -2 2 5 13 16 25 16 17 17 23 6 36 -12 14 -11 15 14
4 25 -12 29 -10 51 17 13 16 24 36 25 44 0 21 -20 40 -43 40 -10 0 -16 4 -13
8 3 5 -1 9 -9 10 -8 1 -22 3 -30 4 -8 1 -17 9 -20 18 -5 15 -65 57 -75 51 -3
-1 -27 1 -53 4 -38 6 -52 3 -68 -11 -10 -9 -19 -14 -19 -9 0 4 -7 2 -15 -5 -8
-7 -12 -17 -8 -23 3 -5 1 -7 -4 -4 -6 4 -16 0 -23 -8 -7 -8 -16 -12 -21 -9
-10 6 -11 -3 -11 -53 0 -29 -1 -31 -15 -18 -8 9 -13 24 -10 35 3 10 -1 27 -8
37 -12 15 -11 22 1 41 18 27 26 66 28 137 1 49 1 49 40 57 21 5 41 6 44 3 3
-3 -2 -5 -12 -5 -13 0 -15 -6 -11 -27 5 -24 4 -25 -5 -8 -9 17 -9 15 -5 -10
10 -47 37 -68 97 -73 62 -5 102 19 113 68 8 36 -17 93 -52 115 -14 10 -22 12
-18 5 4 -7 -5 -4 -21 6 -22 15 -50 19 -141 20 -62 1 -116 -2 -119 -7z m-13
-52 c-10 -9 -11 -8 -5 6 3 10 9 15 12 12 3 -3 0 -11 -7 -18z m26 1 c-3 -8 -6
-5 -6 6 -1 11 2 17 5 13 3 -3 4 -12 1 -19z m-137 -23 c0 -2 -10 -9 -22 -15
-22 -11 -22 -10 -4 4 21 17 26 19 26 11z m365 -34 c5 -1 4 -6 -2 -12 -8 -8
-19 -6 -39 5 l-29 16 30 -4 c17 -2 34 -5 40 -5z m23 -73 c-16 -10 -45 -10 -51
0 -3 4 10 7 29 8 21 0 30 -3 22 -8z m-288 -8 c0 -5 -5 -10 -11 -10 -5 0 -7 5
-4 10 3 6 8 10 11 10 2 0 4 -4 4 -10z m-203 -22 c-3 -8 -6 -5 -6 6 -1 11 2 17
5 13 3 -3 4 -12 1 -19z m249 -10 c5 -7 3 -8 -6 -3 -10 6 -12 4 -7 -8 3 -9 -1
-21 -11 -29 -15 -11 -16 -11 -4 3 10 14 10 18 -3 23 -8 3 -15 10 -15 16 0 14
37 13 46 -2z m-49 -44 c-3 -3 -12 -4 -19 -1 -8 3 -5 6 6 6 11 1 17 -2 13 -5z
m0 -40 c-3 -3 -12 -4 -19 -1 -8 3 -5 6 6 6 11 1 17 -2 13 -5z m406 -31 c-7 -2
-19 -2 -25 0 -7 3 -2 5 12 5 14 0 19 -2 13 -5z m-63 -24 c0 -5 6 -7 13 -3 7 4
9 3 4 -2 -5 -5 -10 -7 -11 -4 -2 3 -10 -1 -19 -8 -12 -10 -17 -10 -23 -1 -5 8
-3 10 7 5 8 -4 5 0 -5 8 -19 15 -19 16 7 16 15 0 27 -5 27 -11z m-100 -14 c-7
-8 -16 -12 -21 -9 -13 8 -1 24 18 24 13 0 13 -3 3 -15z m20 -30 c1 15 3 16 7
5 3 -8 10 -18 16 -21 5 -4 5 -9 -2 -13 -6 -4 -11 -3 -11 2 0 4 -16 8 -35 7
-19 -1 -32 2 -29 7 3 4 9 6 14 3 4 -3 11 3 15 13 7 16 8 15 15 -3 l9 -20 1 20z
m35 5 c3 -5 1 -10 -4 -10 -6 0 -11 5 -11 10 0 6 2 10 4 10 3 0 8 -4 11 -10z
m-111 -8 c3 -5 -1 -9 -9 -9 -8 0 -12 4 -9 9 3 4 7 8 9 8 2 0 6 -4 9 -8z m136
0 c0 -5 -7 -17 -15 -28 -14 -18 -14 -17 -4 9 12 27 19 34 19 19z m25 -2 c-3
-6 3 -24 15 -40 12 -17 16 -30 10 -30 -6 0 -9 -4 -6 -9 3 -5 -10 -9 -29 -9
-20 0 -43 -6 -53 -13 -15 -13 -16 -12 -3 4 15 20 2 23 -19 5 -12 -11 -12 -10
0 5 7 10 19 16 27 13 7 -3 13 -1 13 4 0 6 3 9 8 9 4 -1 18 -1 31 0 22 1 23 2
7 26 -18 28 -21 45 -5 45 5 0 7 -5 4 -10z m-398 -42 c-3 -7 -5 -2 -5 12 0 14
2 19 5 13 2 -7 2 -19 0 -25z m161 7 c-3 -3 -9 2 -12 12 -6 14 -5 15 5 6 7 -7
10 -15 7 -18z m72 -3 c0 -4 -9 -8 -19 -8 -11 0 -17 4 -15 8 7 10 34 10 34 0z
m74 -7 c11 -8 15 -15 9 -15 -7 0 -15 5 -18 11 -4 6 -14 8 -22 5 -8 -3 -11 -1
-8 4 8 13 16 12 39 -5z m-297 -37 c-3 -8 -6 -5 -6 6 -1 11 2 17 5 13 3 -3 4
-12 1 -19z m225 -17 c-2 -9 3 -11 13 -7 10 4 15 2 13 -6 -2 -6 -15 -12 -29
-14 -13 -1 -18 0 -11 2 17 8 5 24 -18 24 -10 0 -21 -8 -24 -18 -8 -24 -60 -45
-95 -37 -16 3 -39 18 -52 32 l-24 25 35 -19 c19 -11 41 -18 49 -15 8 2 11 0 8
-5 -3 -5 0 -10 7 -10 8 0 12 6 9 12 -3 8 4 11 19 8 18 -3 27 2 38 22 10 19 20
25 39 23 16 -2 25 -8 23 -17z"/>
<path d="M184 1304 c-4 -14 -3 -29 2 -34 5 -5 9 6 10 26 1 41 -3 43 -12 8z"/>
<path d="M1341 974 c0 -11 3 -14 6 -6 3 7 2 16 -1 19 -3 4 -6 -2 -5 -13z"/>
</g>
</svg>
